<svg width="102" height="71" viewBox="0 0 102 71" fill="none" xmlns="http://www.w3.org/2000/svg">
<path d="M102 2.88787C102 2.80627 102 2.72467 101.98 2.62267C101.98 2.60227 101.98 2.60227 101.98 2.58187C101.959 2.50027 101.959 2.41867 101.918 2.33707C101.918 2.31667 101.918 2.31667 101.898 2.29627C101.898 2.27587 101.878 2.23507 101.878 2.21467C101.857 2.15347 101.837 2.11267 101.816 2.05147V2.03107C101.776 1.94947 101.735 1.88827 101.694 1.80667C101.694 1.80667 101.694 1.78627 101.674 1.78627C101.633 1.70467 101.572 1.64347 101.531 1.58227L101.51 1.56187C101.449 1.50067 101.408 1.43947 101.347 1.37827C101.327 1.37827 101.327 1.35787 101.306 1.35787C101.245 1.29667 101.184 1.25587 101.102 1.21507C101.082 1.21507 101.082 1.19467 101.062 1.19467C100.98 1.15387 100.919 1.11307 100.837 1.07227H100.817C100.735 1.03147 100.654 0.990671 100.572 0.970271C100.49 0.949871 100.409 0.929472 100.307 0.909072H100.286C100.205 0.888672 100.123 0.888672 100.042 0.888672C100.021 0.888672 100.021 0.888672 100.001 0.888672C99.9804 0.888672 99.9804 0.888672 99.96 0.888672H2.04C2.0196 0.888672 2.0196 0.888672 1.9992 0.888672C1.9788 0.888672 1.9788 0.888672 1.9584 0.888672C1.8768 0.888672 1.7952 0.909072 1.7136 0.909072H1.6932C1.6116 0.929472 1.53 0.949871 1.428 0.970271C1.3464 0.990671 1.2648 1.03147 1.1832 1.07227H1.1628C1.0812 1.11307 1.02 1.15387 0.9384 1.19467C0.918 1.19467 0.918 1.21507 0.8976 1.21507C0.8364 1.25587 0.7752 1.31707 0.6936 1.35787C0.6732 1.35787 0.6732 1.37827 0.6528 1.37827C0.5916 1.43947 0.5304 1.50067 0.4896 1.56187L0.4692 1.58227C0.408 1.64347 0.3672 1.72507 0.3264 1.78627C0.3264 1.78627 0.3264 1.80667 0.306 1.80667C0.2652 1.86787 0.2244 1.94947 0.1836 2.03107V2.05147C0.1632 2.11267 0.1428 2.15347 0.1224 2.21467C0.1224 2.23507 0.102 2.27587 0.102 2.29627C0.102 2.31667 0.102 2.31667 0.0816 2.33707C0.0612 2.41867 0.0408 2.50027 0.0204 2.58187C0.0204 2.60227 0.0204 2.60227 0.0204 2.62267C-1.97589e-08 2.72467 0 2.80627 0 2.88787C0 2.88787 0 2.88787 0 2.90827V65.6995V68.3107C0 69.4327 0.918 70.3507 2.04 70.3507H99.96C101.082 70.3507 102 69.4327 102 68.3107V65.6995V2.88787C102 2.90827 102 2.90827 102 2.88787ZM4.08 7.13107L24.3576 23.2063L38.148 34.1407L4.08 61.4359V7.13107ZM41.4528 36.7519L49.7556 43.1779C49.7964 43.2187 49.8576 43.2391 49.8984 43.2799C50.5716 43.7083 51.4488 43.7083 52.122 43.2799C52.1628 43.2391 52.224 43.2187 52.2648 43.1779L60.5676 36.7519L97.4304 66.2707H4.59L41.4528 36.7519ZM63.852 34.1611L77.6424 23.2267L97.92 7.15147V61.4563L63.852 34.1611ZM94.1052 4.94827L78.3156 17.4739L59.3232 32.5495L51 38.9755L42.6768 32.5495L23.6844 17.4943L7.8948 4.96867H94.1052V4.94827Z" fill="white"/>
</svg>
