<svg width="80" height="80" viewBox="0 0 80 80" fill="none" xmlns="http://www.w3.org/2000/svg">
<path d="M57.7981 2H21.7019C10.8208 2 2 10.8208 2 21.7019V57.7981C2 68.6792 10.8208 77.5 21.7019 77.5H57.7981C68.6792 77.5 77.5 68.6792 77.5 57.7981V21.7019C77.5 10.8208 68.6792 2 57.7981 2Z" stroke="white" stroke-width="3.59524" stroke-linecap="round" stroke-linejoin="round"/>
<path d="M39.75 59.5242C50.6708 59.5242 59.5238 50.6711 59.5238 39.7504C59.5238 28.8296 50.6708 19.9766 39.75 19.9766C28.8292 19.9766 19.9762 28.8296 19.9762 39.7504C19.9762 50.6711 28.8292 59.5242 39.75 59.5242Z" stroke="white" stroke-width="3.59524" stroke-linecap="round" stroke-linejoin="round"/>
<path d="M61.3214 16.3804C62.3142 16.3804 63.119 15.5756 63.119 14.5828C63.119 13.59 62.3142 12.7852 61.3214 12.7852C60.3286 12.7852 59.5238 13.59 59.5238 14.5828C59.5238 15.5756 60.3286 16.3804 61.3214 16.3804Z" stroke="white" stroke-width="3.59524" stroke-linecap="round" stroke-linejoin="round"/>
</svg>
